<svg height="1245" viewBox="24.56 39.29 1651.66 849.31" width="2500" xmlns="http://www.w3.org/2000/svg"><circle cx="1176.28" cy="213.16" fill="#ffdf00" r="173.87"/><path d="m1073.81 715.02c3-2.23 6.09-4.33 9.21-6.31-3.15 2.01-6.21 4.11-9.21 6.31zm195.72-6.31c3.12 1.98 6.21 4.08 9.21 6.31-3-2.19-6.06-4.3-9.21-6.31z" fill="#ffdf00"/><path d="m1350.14 583.19c0 49.55-20.71 94.21-53.94 125.86-.74-.62-1.45-1.21-2.19-1.79-33.72-26.89-74.46-41.11-117.73-41.11s-84.01 14.22-117.76 41.11c-.74.59-1.48 1.17-2.19 1.79-33.2-31.68-53.91-76.35-53.91-125.86 0-96.03 77.83-173.86 173.86-173.86s173.86 77.83 173.86 173.86z" fill="#f6b84b"/><path d="m1023.4 777.25c29.44-54.2 86.86-90.98 152.88-90.98s123.44 36.79 152.88 90.98z" fill="#e3693a"/><path d="m82.74 865.7 10.24 1.99c-2.15 6.47-6.01 11.39-11.59 14.79s-12.4 5.09-20.46 5.09-15.12-1.3-20.35-3.91c-5.22-2.61-9.2-6.39-11.93-11.34s-4.09-10.26-4.09-15.94c0-6.19 1.54-11.59 4.62-16.21 3.08-4.61 7.46-8.11 13.15-10.51 5.68-2.4 11.94-3.59 18.77-3.59 7.74 0 14.25 1.52 19.53 4.54 5.28 3.03 8.96 7.29 11.03 12.78l-10.08 1.82c-1.79-4.33-4.4-7.48-7.81-9.45s-7.71-2.96-12.88-2.96c-5.95 0-10.92 1.1-14.91 3.28-3.99 2.19-6.8 5.13-8.42 8.83-1.62 3.69-2.43 7.5-2.43 11.42 0 5.06.96 9.47 2.88 13.25 1.92 3.77 4.9 6.59 8.95 8.46 4.05 1.86 8.43 2.8 13.15 2.8 5.74 0 10.59-1.27 14.57-3.82 3.98-2.54 6.67-6.31 8.08-11.32zm58.76 22.9 29.72-59.48h11.03l31.67 59.48h-11.67l-9.03-18.01h-32.36l-8.5 18.01h-10.87zm22.33-24.42h26.24l-8.08-16.47c-2.46-5-4.29-9.11-5.49-12.33-.99 3.81-2.38 7.6-4.17 11.36zm102.93 22.38v-59.48h10.24v52.46h38.11v7.02zm89.58 0v-59.48h10.24v59.48zm67.21 0v-59.48h26.66c6.02 0 10.61.28 13.78.85 4.43.79 8.22 2.21 11.35 4.26 4.08 2.65 7.14 6.04 9.16 10.17 2.02 4.12 3.04 8.84 3.04 14.14 0 4.52-.69 8.52-2.06 12.01s-3.13 6.38-5.28 8.66c-2.15 2.29-4.5 4.08-7.05 5.39s-5.63 2.31-9.24 2.98c-3.61.68-7.75 1.01-12.43 1.01h-27.93zm10.24-7.02h16.52c5.1 0 9.11-.36 12.01-1.1 2.9-.73 5.22-1.76 6.94-3.08 2.43-1.87 4.32-4.38 5.67-7.53s2.03-6.97 2.03-11.46c0-6.22-1.33-11-3.99-14.34s-5.89-5.58-9.69-6.72c-2.74-.81-7.16-1.21-13.25-1.21h-16.26v45.44zm98.26 7.02 29.72-59.48h11.03l31.67 59.48h-11.67l-9.03-18.01h-32.36l-8.5 18.01h-10.87zm22.33-24.43h26.24l-8.08-16.47c-2.46-5-4.29-9.11-5.49-12.33-.99 3.81-2.38 7.6-4.17 11.36zm97.2 24.43v-59.48h26.66c6.02 0 10.61.28 13.78.85 4.43.79 8.22 2.21 11.35 4.26 4.08 2.65 7.14 6.04 9.16 10.17 2.02 4.12 3.04 8.84 3.04 14.14 0 4.52-.69 8.52-2.06 12.01s-3.13 6.38-5.28 8.66c-2.15 2.29-4.5 4.08-7.05 5.39s-5.63 2.31-9.24 2.98c-3.61.68-7.75 1.01-12.43 1.01h-27.93zm10.24-7.02h16.52c5.1 0 9.11-.36 12.01-1.1 2.9-.73 5.22-1.76 6.94-3.08 2.43-1.87 4.32-4.38 5.67-7.53s2.03-6.97 2.03-11.46c0-6.22-1.33-11-3.99-14.34s-5.89-5.58-9.69-6.72c-2.74-.81-7.16-1.21-13.25-1.21h-16.26v45.44zm175.4-12.09 7.08-.65c.34 2.97 1.12 5.41 2.34 7.32s3.13 3.45 5.71 4.63 5.48 1.77 8.71 1.77c2.86 0 5.39-.45 7.59-1.34 2.19-.89 3.82-2.12 4.9-3.67 1.07-1.56 1.61-3.25 1.61-5.09s-.52-3.49-1.55-4.89c-1.03-1.39-2.74-2.56-5.11-3.51-1.52-.62-4.89-1.59-10.1-2.9s-8.86-2.55-10.95-3.71c-2.71-1.49-4.73-3.34-6.06-5.54s-1.99-4.67-1.99-7.41c0-3 .81-5.81 2.44-8.42s4-4.59 7.12-5.94 6.59-2.03 10.41-2.03c4.21 0 7.92.71 11.13 2.13s5.68 3.51 7.41 6.27 2.66 5.88 2.79 9.37l-7.2.57c-.39-3.76-1.7-6.6-3.93-8.52s-5.53-2.88-9.89-2.88-7.85.87-9.93 2.62-3.12 3.85-3.12 6.31c0 2.14.74 3.9 2.21 5.27 1.45 1.38 5.22 2.79 11.32 4.24s10.29 2.71 12.56 3.79c3.3 1.6 5.74 3.62 7.32 6.06 1.57 2.45 2.36 5.27 2.36 8.46s-.87 6.15-2.59 8.95c-1.73 2.8-4.21 4.98-7.45 6.53-3.24 1.56-6.88 2.33-10.93 2.33-5.14 0-9.44-.79-12.91-2.35-3.47-1.57-6.19-3.93-8.17-7.08-1.97-3.15-3.01-6.72-3.12-10.69zm143.38-40.37h8.03v34.36c0 5.98-.69 10.72-2.07 14.24s-3.87 6.38-7.47 8.58c-3.6 2.21-8.32 3.31-14.17 3.31s-10.33-.96-13.95-2.88c-3.61-1.92-6.19-4.7-7.74-8.34s-2.32-8.61-2.32-14.91v-34.36h8.03v34.32c0 5.17.49 8.97 1.47 11.42s2.66 4.34 5.05 5.66c2.38 1.32 5.3 1.99 8.75 1.99 5.9 0 10.11-1.31 12.62-3.93s3.76-7.67 3.76-15.13v-34.32zm68.23 59.48v-59.48h22.79c4.01 0 7.08.19 9.19.57 2.97.49 5.46 1.41 7.46 2.78 2.01 1.36 3.62 3.28 4.84 5.74s1.83 5.17 1.83 8.11c0 5.06-1.64 9.34-4.9 12.84-3.27 3.5-9.18 5.25-17.72 5.25h-10.54v24.18h-12.96zm12.96-31.2h10.66c5.17 0 8.84-.95 11.01-2.84s3.25-4.56 3.25-7.99c0-2.49-.64-4.62-1.92-6.39s-2.96-2.94-5.05-3.51c-1.35-.35-3.83-.53-7.46-.53h-10.49zm85.1 31.2v-59.48h45.65v7.02h-33.44v18.22h31.07v6.98h-31.07v20.25h34.91v7.02h-47.12zm98.85 0v-59.48h23.95c4.81 0 8.48.53 10.98 1.6 2.51 1.07 4.51 2.95 6.01 5.66 1.5 2.7 2.25 5.69 2.25 8.97 0 4.22-1.24 7.78-3.72 10.67-2.48 2.9-6.31 4.73-11.5 5.52 1.89 1 3.33 1.99 4.31 2.96 2.09 2.11 4.06 4.75 5.93 7.91l9.4 16.19h-8.99l-7.15-12.37c-2.09-3.57-3.81-6.3-5.16-8.19-1.35-1.9-2.56-3.22-3.63-3.98s-2.16-1.29-3.26-1.58c-.81-.19-2.14-.29-3.98-.29h-3.9v26.41zm11.54-33.23h10.98c3.27 0 5.82-.37 7.67-1.12 1.84-.74 3.24-1.93 4.2-3.57s1.44-3.41 1.44-5.34c0-2.81-.93-5.12-2.78-6.94-1.85-1.81-4.78-2.72-8.79-2.72h-12.71v19.68zm292.01 33.23v-59.48h23.95c4.81 0 8.48.53 10.98 1.6 2.51 1.07 4.51 2.95 6.01 5.66 1.5 2.7 2.25 5.69 2.25 8.97 0 4.22-1.24 7.78-3.72 10.67s-6.31 4.73-11.5 5.52c1.89 1 3.33 1.99 4.31 2.96 2.09 2.11 4.06 4.75 5.93 7.91l9.4 16.19h-8.99l-7.15-12.37c-2.09-3.57-3.81-6.3-5.16-8.19-1.35-1.9-2.56-3.22-3.63-3.98s-2.16-1.29-3.26-1.58c-.81-.19-2.14-.29-3.98-.29h-3.9v26.41zm11.54-33.23h10.98c3.27 0 5.82-.37 7.67-1.12 1.84-.74 3.24-1.93 4.2-3.57s1.44-3.41 1.44-5.34c0-2.81-.93-5.12-2.78-6.94-1.85-1.81-4.78-2.72-8.79-2.72h-12.71v19.68zm-211.2 33.23v-59.48h10.24v59.48zm65.55-28.97c0-9.87 3.45-17.6 10.35-23.19 6.9-5.58 15.8-8.38 26.71-8.38 7.14 0 13.59 1.31 19.32 3.93 5.74 2.62 10.11 6.28 13.12 10.98 3.01 4.69 4.52 10.01 4.52 15.96s-1.58 11.43-4.75 16.19-7.65 8.37-13.46 10.81c-5.81 2.45-12.07 3.67-18.79 3.67-7.28 0-13.8-1.35-19.53-4.06-5.74-2.71-10.08-6.4-13.04-11.08s-4.43-9.63-4.43-14.85zm10.56.12c0 7.17 2.51 12.81 7.52 16.94 5.02 4.13 11.31 6.19 18.87 6.19s14.05-2.08 19.03-6.25 7.47-10.08 7.47-17.73c0-4.84-1.07-9.07-3.19-12.68-2.13-3.61-5.25-6.41-9.35-8.4s-8.7-2.98-13.8-2.98c-7.25 0-13.49 1.91-18.71 5.74s-7.84 10.22-7.84 19.17zm-1401.18-84.32 161.09-345.6 157.09 345.6zm331.78 0v-345.6h126.91s146.62-2.62 146.62 172.8-145.75 172.8-145.75 172.8zm290.11-345.6h116.07v349.46h-116.07zm938.66 233.39h-101.33v-233.39h-116.08v349.46h217.41zm-600.92-118.19v-88.15s-27.93-34.91-93.38-34.91-113.45 48.61-113.45 114.2c0 107.48 116.07 93.51 116.07 138.89 0 0 6.11 20.07-29.67 20.07s-86.4-44.51-86.4-44.51v105.6s58.47 30.55 103.42 30.55 117.38-27.1 117.38-114.33c0-111.22-121.31-100.36-121.31-144.87 0-30.55 79.42-17.45 107.35 17.45zm622.3-126.47c11.71 0 23.15 3.01 34.31 9.02s19.85 14.61 26.08 25.8 9.34 22.86 9.34 35-3.07 23.58-9.2 34.68c-6.14 11.1-14.74 19.71-25.8 25.85-11.07 6.14-22.64 9.2-34.73 9.2s-23.66-3.07-34.73-9.2-19.69-14.75-25.85-25.85-9.25-22.66-9.25-34.68 3.13-23.81 9.39-35 14.96-19.79 26.13-25.8c11.16-6.01 22.6-9.02 34.31-9.02zm0 11.56c-9.8 0-19.35 2.51-28.62 7.54-9.28 5.03-16.54 12.21-21.78 21.55s-7.86 19.07-7.86 29.18 2.57 19.68 7.72 28.9 12.35 16.4 21.59 21.55c9.25 5.15 18.9 7.72 28.95 7.72s19.7-2.57 28.95-7.72 16.43-12.33 21.55-21.55 7.68-18.85 7.68-28.9-2.61-19.84-7.81-29.18c-5.21-9.34-12.47-16.52-21.78-21.55-9.31-5.02-18.83-7.54-28.58-7.54zm-30.61 96.83v-75.09h25.8c8.82 0 15.2.69 19.14 2.08 3.95 1.39 7.09 3.81 9.43 7.26 2.35 3.45 3.52 7.12 3.52 11.01 0 5.49-1.96 10.26-5.87 14.33-3.92 4.07-9.11 6.35-15.59 6.84 2.65 1.11 4.78 2.44 6.38 3.98 3.02 2.96 6.72 7.92 11.1 14.89l9.16 14.7h-14.8l-6.66-11.84c-5.24-9.31-9.46-15.14-12.67-17.48-2.22-1.73-5.46-2.59-9.71-2.59h-7.12v31.91h-12.12zm12.12-42.26h14.71c7.03 0 11.82-1.05 14.38-3.14 2.56-2.1 3.84-4.87 3.84-8.32 0-2.22-.61-4.21-1.85-5.97s-2.95-3.07-5.13-3.93-6.24-1.3-12.16-1.3h-13.78v22.66z" fill="#71757a"/></svg>