<svg height="901" viewBox="0 0 687.21 247.54" width="2500" xmlns="http://www.w3.org/2000/svg"><path d="m551.59 71.92v-18.63h-77.56v95.62h77.56v-18.63h-58.92v-19.86h58.92v-18.64h-58.92v-19.86zm-187.86 0v-18.63h-77.55v95.62h18.63v-38.49h58.92v-18.64h-58.92v-19.86zm67.95 38.5s26.35 2.16 26.35-27.58-22.02-29.55-22.02-29.55h-55.53v95.62h18.64v-76.99h33.26c.89 0 1.78.09 2.65.3 2.83.68 7.95 2.82 7.95 9.49 0 6.24-5.13 8.65-8.45 9.55-1.32.36-2.68.52-4.05.52h-22.32v18.64l31.44 38.49h24.28l-32.19-38.49z" fill="#1187a2"/><path d="m633.17 130.28h54.04v18.63h-94.62l71.75-76.99h-96.57v-18.63h119.44v18.63z" fill="#f06c1f"/><path d="m598.12 130.28h-30.35v18.63h12.92zm36-38.5h-66.35v18.64h48.92zm-512.15 96.16a2.755 2.755 0 0 1 -.01-3.88l59.82-60.55-27.19-27.19-60.36 60a2.746 2.746 0 0 1 -3.88 0l-30.87-30.87a2.758 2.758 0 0 1 0-3.89l92.89-92.89-28.73-28.67-123.64 123.9 123.9 123.64 28.8-28.86-30.73-30.73z" fill="#1187a2"/><path d="m156.26 32.55-90.95 90.95 26.99 26.99 60.36-60a2.746 2.746 0 0 1 3.88 0l31.06 31.06c1.07 1.07 1.07 2.8.01 3.88l-59.82 60.55 28.79 28.79 90.95-91.14-91.28-91.08z" fill="#1187a2"/><path d="m287.26 185.5c0-9.95 6.94-16.59 16.57-16.59 6.81 0 11.13 3.32 13.57 7.5l-4.41 2.88c-1.88-3.17-4.92-5.14-9.16-5.14-6.51 0-11.09 4.66-11.09 11.35s4.58 11.3 11.09 11.3c4.2 0 7.28-1.92 8.99-4.95l4.58 2.84c-2.48 4.09-6.81 7.4-13.57 7.4-9.63 0-16.57-6.68-16.57-16.59zm36.1 0c0-9.81 6.59-16.59 16.27-16.59s16.27 6.78 16.27 16.59-6.55 16.59-16.27 16.59-16.27-6.83-16.27-16.59zm16.27 11.29c6.55 0 10.83-4.66 10.83-11.3s-4.28-11.35-10.83-11.35-10.79 4.71-10.79 11.35 4.24 11.3 10.79 11.3zm24.57-27.35h5.52l17.13 23.22v-23.22h5.27v32.07h-5.14l-17.47-23.8v23.8h-5.31zm35.71 27.02 3.08-4.42c2.4 2.6 6.21 4.76 10.83 4.76s7.06-1.92 7.06-4.23c0-2.98-3.12-3.7-7.88-4.52-6.04-1.06-12.16-2.5-12.16-9.62 0-5.58 4.79-9.52 12.25-9.52 5.27 0 9.5 1.78 12.54 5l-3.13 4.33c-2.35-2.45-5.74-4.04-9.85-4.04s-6.34 1.44-6.34 3.75c0 2.6 2.78 3.32 7.79 4.23 6.04 1.15 12.25 2.64 12.25 9.76 0 5.53-4.24 10.15-12.8 10.15-5.99 0-11-2.64-13.66-5.63zm42.26-21.78h-10.1v-5.24h25.48v5.24h-10.1v26.83h-5.27v-26.83zm23.11-5.24h16.23c5.99 0 9.85 3.89 9.85 10.1 0 5.72-3.04 8.61-7.24 9.66l7.71 12.31h-6.46l-7.02-11.83h-7.75v11.83h-5.31v-32.07zm15.76 15c3 0 4.92-1.83 4.92-4.9s-1.93-4.86-4.92-4.86h-10.45v9.76zm18.75 3.32v-18.32h5.31v18.22c0 5.63 3.17 9.09 8.65 9.09s8.65-3.46 8.65-9.09v-18.22h5.31v18.32c0 8.7-5.01 14.33-13.96 14.33s-13.96-5.63-13.96-14.33zm36.18-2.26c0-9.95 6.94-16.59 16.57-16.59 6.81 0 11.13 3.32 13.57 7.5l-4.41 2.88c-1.88-3.17-4.92-5.14-9.16-5.14-6.51 0-11.09 4.66-11.09 11.35s4.58 11.3 11.09 11.3c4.2 0 7.28-1.92 8.99-4.95l4.58 2.84c-2.48 4.09-6.81 7.4-13.57 7.4-9.63 0-16.57-6.68-16.57-16.59zm45.68-10.82h-10.1v-5.24h25.48v5.24h-10.1v26.83h-5.27v-26.83zm23.12-5.24h5.31v32.07h-5.31zm13.58 16.06c0-9.81 6.59-16.59 16.27-16.59s16.27 6.78 16.27 16.59-6.55 16.59-16.27 16.59-16.27-6.83-16.27-16.59zm16.27 11.29c6.55 0 10.83-4.66 10.83-11.3s-4.28-11.35-10.83-11.35-10.79 4.71-10.79 11.35 4.24 11.3 10.79 11.3zm24.57-27.35h5.52l17.13 23.22v-23.22h5.27v32.07h-5.14l-17.47-23.8v23.8h-5.31z" fill="#808080"/></svg>